<svg width="67" height="47" viewBox="0 0 67 47" fill="none" xmlns="http://www.w3.org/2000/svg">
<path d="M47.4192 30.2753C45.5528 29.8986 43.7713 29.185 42.1628 28.1699C36.9597 24.8418 34.2287 18.5858 35.3721 12.6187C36.5853 6.32618 41.3846 1.49214 47.566 0.296877C56.6839 -1.46677 64.2472 4.86591 65.6861 12.9714C66.3854 16.9008 65.8696 20.8046 64.9171 24.6243C62.1641 35.7618 54.9678 42.7177 44.1376 46.1591C42.6051 46.6452 41.1644 46.1152 40.3513 44.8523C39.5383 43.5894 39.6649 42.0908 40.7184 40.8736C43.3649 37.8197 45.6371 34.53 47.2063 30.7906C47.276 30.6444 47.3311 30.4964 47.4192 30.2753ZM46.685 40.4843C46.8236 40.4564 46.9603 40.4198 47.0943 40.3747C50.6236 38.7061 53.6794 36.427 56.0764 33.3365C60.2591 27.9451 61.8026 21.6964 61.5163 15.0403C61.2538 8.90495 56.0929 3.96125 49.6784 4.39439C43.4842 4.81109 38.5215 10.9446 39.6815 17.0287C40.5991 21.8097 43.453 24.8582 48.2083 26.0772C51.2256 26.8503 52.5526 29.4382 51.3669 32.2911C50.1331 35.1964 48.5591 37.9465 46.6777 40.4843H46.685Z" fill="#098A5B"/>
<path d="M12.3132 30.4981C10.6614 29.7982 9.07932 29.2937 7.66245 28.5024C2.18402 25.4429 -0.84976 19.0244 0.20922 12.9676C1.34528 6.47412 6.18135 1.50666 12.4508 0.296774C21.5136 -1.45043 28.9265 4.77078 30.5269 12.6167C31.1619 15.7237 30.8499 18.8434 30.3672 21.9376C29.5211 27.3492 27.5261 32.2892 23.9803 36.5348C19.9426 41.3615 14.7927 44.4666 8.78751 46.2211C8.13146 46.4089 7.43177 46.378 6.79498 46.1332C6.15818 45.8884 5.61917 45.4431 5.26001 44.865C4.47266 43.6624 4.57545 42.2333 5.46558 41.0416C7.05864 38.9033 8.69024 36.7888 10.1677 34.5737C11.0339 33.2834 11.6341 31.8104 12.3132 30.4981ZM11.9002 40.3819C11.9736 40.349 12.1773 40.2704 12.3719 40.1735C19.6269 36.5987 24.0023 30.7869 25.6945 22.9556C26.3534 19.9181 26.7571 16.833 26.2542 13.7261C25.3513 8.13176 20.484 4.12563 14.8753 4.40526C10.6045 4.6264 7.43855 6.74095 5.56652 10.5314C3.65962 14.3895 4.04504 18.1964 6.50437 21.7237C8.09192 24.001 10.309 25.4228 13.0308 26.0625C15.3414 26.6108 16.8336 28.3361 16.661 30.4488C16.5676 31.3757 16.296 32.276 15.8608 33.1007C14.5963 35.5752 13.2143 37.9859 11.9002 40.3819Z" fill="#098A5B"/>
</svg>
