<svg width="31" height="30" viewBox="0 0 31 30" fill="none" xmlns="http://www.w3.org/2000/svg">
<path d="M15.4958 7.30355C11.0948 7.30355 7.54298 10.7409 7.54298 15C7.54298 19.2591 11.0948 22.6964 15.4958 22.6964C19.8969 22.6964 23.4487 19.2591 23.4487 15C23.4487 10.7409 19.8969 7.30355 15.4958 7.30355ZM15.4958 20.0021C12.6497 20.0021 10.3271 17.7544 10.3271 15C10.3271 12.2456 12.6497 9.99787 15.4958 9.99787C18.342 9.99787 20.6646 12.2456 20.6646 15C20.6646 17.7544 18.342 20.0021 15.4958 20.0021ZM23.7744 5.19462C22.7468 5.19462 21.9171 5.99767 21.9171 6.99209C21.9171 7.98651 22.7468 8.78955 23.7744 8.78955C24.8019 8.78955 25.6317 7.99026 25.6317 6.99209C25.6321 6.75596 25.5842 6.52209 25.491 6.30388C25.3978 6.08567 25.261 5.8874 25.0884 5.72043C24.9159 5.55346 24.711 5.42107 24.4855 5.33085C24.2601 5.24062 24.0184 5.19433 23.7744 5.19462ZM30.9983 15C30.9983 12.9286 31.0177 10.876 30.8975 8.80832C30.7773 6.40669 30.2111 4.27525 28.3964 2.51907C26.5779 0.759128 24.3793 0.215011 21.8977 0.098682C19.7573 -0.0176466 17.6362 0.00111617 15.4997 0.00111617C13.3593 0.00111617 11.2383 -0.0176466 9.10176 0.098682C6.62013 0.215011 4.41768 0.762881 2.60299 2.51907C0.784418 4.27901 0.222174 6.40669 0.10197 8.80832C-0.0182344 10.8797 0.00115335 12.9324 0.00115335 15C0.00115335 17.0676 -0.0182344 19.124 0.10197 21.1917C0.222174 23.5933 0.788296 25.7247 2.60299 27.4809C4.42156 29.2409 6.62013 29.785 9.10176 29.9013C11.2422 30.0176 13.3632 29.9989 15.4997 29.9989C17.6401 29.9989 19.7611 30.0176 21.8977 29.9013C24.3793 29.785 26.5817 29.2371 28.3964 27.4809C30.215 25.721 30.7773 23.5933 30.8975 21.1917C31.0215 19.124 30.9983 17.0714 30.9983 15ZM27.586 23.8485C27.303 24.5314 26.9617 25.0418 26.415 25.5671C25.8683 26.0962 25.3448 26.4265 24.6391 26.7004C22.5995 27.4847 17.7564 27.3083 15.4958 27.3083C13.2352 27.3083 8.38829 27.4847 6.3487 26.7042C5.64299 26.4302 5.11564 26.1 4.57278 25.5709C4.02605 25.0418 3.68482 24.5352 3.40176 23.8522C2.59523 21.8746 2.77748 17.1877 2.77748 15C2.77748 12.8123 2.59523 8.1216 3.40176 6.14777C3.68482 5.46481 4.02605 4.95446 4.57278 4.42911C5.11952 3.90375 5.64299 3.56978 6.3487 3.29584C8.38829 2.51532 13.2352 2.69168 15.4958 2.69168C17.7564 2.69168 22.6034 2.51532 24.643 3.29584C25.3487 3.56978 25.876 3.9 26.4189 4.42911C26.9656 4.95822 27.3068 5.46481 27.5899 6.14777C28.3964 8.1216 28.2142 12.8123 28.2142 15C28.2142 17.1877 28.3964 21.8746 27.586 23.8485Z" fill="#098A5B"/>
</svg>
