<svg width="16" height="16" viewBox="0 0 16 16" fill="none" xmlns="http://www.w3.org/2000/svg">
<path d="M15.5686 7.25665C15.748 7.11661 15.8811 6.92126 15.9492 6.69798C16.0172 6.47469 16.0169 6.23468 15.9483 6.01159C15.8796 5.7885 15.746 5.59353 15.5663 5.454C15.3865 5.31447 15.1696 5.23738 14.9459 5.23356L10.6017 5.06159C10.5803 5.06005 10.5599 5.05207 10.5427 5.03861C10.5256 5.02514 10.5126 5.00678 10.5052 4.98573L9.004 0.73724C8.92857 0.521093 8.79158 0.334452 8.61157 0.202586C8.43156 0.0707203 8.21723 0 7.99759 0C7.77795 0 7.56361 0.0707203 7.3836 0.202586C7.20359 0.334452 7.0666 0.521093 6.99118 0.73724L5.49483 5.0009C5.48744 5.02195 5.47439 5.04032 5.45726 5.05378C5.44013 5.06724 5.41965 5.07522 5.39829 5.07677L1.05408 5.24873C0.830399 5.25256 0.613474 5.32964 0.433718 5.46917C0.253961 5.6087 0.120387 5.80368 0.0517238 6.02677C-0.0169391 6.24986 -0.0172472 6.48987 0.0508428 6.71315C0.118933 6.93643 0.252006 7.13178 0.431404 7.27182L3.8392 10.0789C3.85626 10.0929 3.86901 10.1119 3.87587 10.1335C3.88273 10.1551 3.88341 10.1783 3.87782 10.2002L2.70488 14.5549C2.6441 14.7767 2.64999 15.0127 2.72174 15.2308C2.7935 15.4489 2.92764 15.6386 3.10592 15.774C3.2842 15.9094 3.49796 15.984 3.71812 15.9876C3.93828 15.9912 4.15416 15.9236 4.33637 15.7941L7.93725 13.2652C7.95499 13.2524 7.97603 13.2455 7.99759 13.2455C8.01914 13.2455 8.04019 13.2524 8.05792 13.2652L11.6588 15.7941C11.8386 15.928 12.0537 16 12.2742 16C12.4948 16 12.7099 15.928 12.8897 15.7941C13.068 15.66 13.2023 15.4712 13.274 15.2538C13.3457 15.0365 13.3514 14.8011 13.2903 14.5802L12.1077 10.2104C12.1014 10.1884 12.1018 10.165 12.1087 10.1433C12.1156 10.1215 12.1287 10.1026 12.1463 10.089L15.5686 7.25665Z" fill="#098A5B"/>
</svg>
