<svg width="29" height="24" viewBox="0 0 29 24" fill="none" xmlns="http://www.w3.org/2000/svg">
<path d="M29 2.84684C27.9335 3.32792 26.7879 3.65297 25.5835 3.79989C26.8262 3.0429 27.7559 1.85148 28.1992 0.447947C27.0316 1.15395 25.7538 1.6509 24.4213 1.91719C23.5251 0.943152 22.3382 0.297546 21.0448 0.0806033C19.7513 -0.13634 18.4237 0.0875171 17.268 0.71742C16.1123 1.34732 15.1932 2.34803 14.6535 3.56417C14.1137 4.78031 13.9834 6.14385 14.2829 7.44309C11.9171 7.32216 9.60276 6.69618 7.49002 5.60576C5.37727 4.51535 3.51336 2.98487 2.01925 1.11366C1.50837 2.0108 1.21461 3.05097 1.21461 4.15875C1.21404 5.15601 1.45528 6.13799 1.91692 7.01757C2.37855 7.89715 3.04632 8.64713 3.86096 9.20098C2.91619 9.17037 1.99226 8.91049 1.16608 8.44295V8.52096C1.16598 9.91965 1.64124 11.2753 2.5112 12.3579C3.38116 13.4405 4.59225 14.1833 5.93896 14.4603C5.06253 14.7018 4.14365 14.7374 3.25174 14.5644C3.6317 15.7678 4.37183 16.8203 5.36852 17.5742C6.36521 18.3282 7.56855 18.7461 8.81009 18.7692C6.70251 20.4535 4.09965 21.3672 1.42024 21.3632C0.945611 21.3633 0.471383 21.3351 0 21.2786C2.71976 23.0589 5.88575 24.0037 9.11917 24C20.0647 24 26.0484 14.7711 26.0484 6.76698C26.0484 6.50694 26.042 6.24429 26.0305 5.98425C27.1944 5.12738 28.1991 4.0663 28.9974 2.85074L29 2.84684Z" fill="#098A5B"/>
</svg>
